<svg xmlns="http://www.w3.org/2000/svg" width="495" height="195" viewBox="0 0 495 195" role="img" aria-label="Achievements"><defs><linearGradient id="ng" x1="0" y1="0" x2="1" y2="1"><stop offset="0%" stop-color="#00F7FF"/><stop offset="50%" stop-color="#7B2FFF"/><stop offset="100%" stop-color="#FF00E5"/></linearGradient><linearGradient id="bar" x1="0" y1="0" x2="1" y2="0"><stop offset="0%" stop-color="#00F7FF"/><stop offset="100%" stop-color="#FF00E5"/></linearGradient><linearGradient id="area" x1="0" y1="0" x2="0" y2="1"><stop offset="0%" stop-color="#FF00E5" stop-opacity="0.55"/><stop offset="100%" stop-color="#00F7FF" stop-opacity="0"/></linearGradient><filter id="glow" x="-40%" y="-40%" width="180%" height="180%"><feGaussianBlur stdDeviation="3.2" result="b"/><feMerge><feMergeNode in="b"/><feMergeNode in="SourceGraphic"/></feMerge></filter></defs><style>text{font-family:ui-monospace,SFMono-Regular,Menlo,Consolas,monospace;}.title{fill:#00F7FF;font-size:13px;font-weight:700;letter-spacing:2.5px;}.sub{fill:#6E7681;font-size:10px;letter-spacing:1px;}.num{fill:#C9D1D9;font-size:29px;font-weight:700;}.num2{fill:#C9D1D9;font-size:20px;font-weight:700;}.lbl{fill:#6E7681;font-size:9px;letter-spacing:1.5px;}.sm{fill:#6E7681;font-size:9px;}@keyframes pulse{0%,100%{opacity:.2}50%{opacity:1}}@keyframes dash{to{stroke-dashoffset:-386;}}@keyframes flow{to{stroke-dashoffset:-1600;}}@keyframes breathe{0%,100%{opacity:.55}50%{opacity:1}}.pulse{animation:pulse 2.6s ease-in-out infinite;}.breathe{animation:breathe 4s ease-in-out infinite;}.border{fill:none;stroke:url(#ng);stroke-width:1.5;stroke-dasharray:48 338;animation:dash 7s linear infinite;}.frame{fill:none;stroke:#1F2937;stroke-width:1.2;}.grid{stroke:#1F2937;stroke-width:1;opacity:.55;}.axis{fill:#6E7681;font-size:9px;}</style><rect x="0.75" y="0.75" width="493.5" height="193.5" rx="13" fill="#0D1117"/><rect x="0.75" y="0.75" width="493.5" height="193.5" rx="13" class="border"/><circle cx="24" cy="30" r="3.6" fill="#00F7FF" class="pulse"/><text x="36" y="34" class="title">ACHIEVEMENTS</text><text x="471" y="33" class="sub" text-anchor="end">LIVE DATA</text><rect x="20.0" y="56.0" width="82" height="94" rx="11" fill="#11161D" class="frame"/><rect x="20.0" y="56.0" width="82" height="94" rx="11" fill="none" stroke="#00F7FF" stroke-width="1" opacity="0.35"/><rect x="79.0" y="64.0" width="17" height="15" rx="4" fill="#00F7FF" opacity="0.85"/><text x="87.5" y="75.5" text-anchor="middle" font-size="10" font-weight="700" fill="#0D1117">A</text><text x="61.0" y="100.0" text-anchor="middle" font-size="21" fill="#00F7FF" filter="url(#glow)" class="pulse">▲</text><text x="61.0" y="128.0" text-anchor="middle" class="num2">259</text><text x="61.0" y="142.0" text-anchor="middle" class="lbl">COMMITS</text><rect x="111.0" y="56.0" width="82" height="94" rx="11" fill="#11161D" class="frame"/><rect x="111.0" y="56.0" width="82" height="94" rx="11" fill="none" stroke="#FFD700" stroke-width="1" opacity="0.35"/><rect x="170.0" y="64.0" width="17" height="15" rx="4" fill="#FFD700" opacity="0.85"/><text x="178.5" y="75.5" text-anchor="middle" font-size="10" font-weight="700" fill="#0D1117">C</text><text x="152.0" y="100.0" text-anchor="middle" font-size="21" fill="#FFD700" filter="url(#glow)" class="pulse">★</text><text x="152.0" y="128.0" text-anchor="middle" class="num2">0</text><text x="152.0" y="142.0" text-anchor="middle" class="lbl">STARS</text><rect x="202.0" y="56.0" width="82" height="94" rx="11" fill="#11161D" class="frame"/><rect x="202.0" y="56.0" width="82" height="94" rx="11" fill="none" stroke="#FF00E5" stroke-width="1" opacity="0.35"/><rect x="261.0" y="64.0" width="17" height="15" rx="4" fill="#FF00E5" opacity="0.85"/><text x="269.5" y="75.5" text-anchor="middle" font-size="10" font-weight="700" fill="#0D1117">C</text><text x="243.0" y="100.0" text-anchor="middle" font-size="21" fill="#FF00E5" filter="url(#glow)" class="pulse">●</text><text x="243.0" y="128.0" text-anchor="middle" class="num2">0</text><text x="243.0" y="142.0" text-anchor="middle" class="lbl">FOLLOWERS</text><rect x="293.0" y="56.0" width="82" height="94" rx="11" fill="#11161D" class="frame"/><rect x="293.0" y="56.0" width="82" height="94" rx="11" fill="none" stroke="#7B2FFF" stroke-width="1" opacity="0.35"/><rect x="352.0" y="64.0" width="17" height="15" rx="4" fill="#7B2FFF" opacity="0.85"/><text x="360.5" y="75.5" text-anchor="middle" font-size="10" font-weight="700" fill="#0D1117">C</text><text x="334.0" y="100.0" text-anchor="middle" font-size="21" fill="#7B2FFF" filter="url(#glow)" class="pulse">◆</text><text x="334.0" y="128.0" text-anchor="middle" class="num2">2</text><text x="334.0" y="142.0" text-anchor="middle" class="lbl">REPOS</text><rect x="384.0" y="56.0" width="82" height="94" rx="11" fill="#11161D" class="frame"/><rect x="384.0" y="56.0" width="82" height="94" rx="11" fill="none" stroke="#39D353" stroke-width="1" opacity="0.35"/><rect x="443.0" y="64.0" width="17" height="15" rx="4" fill="#39D353" opacity="0.85"/><text x="451.5" y="75.5" text-anchor="middle" font-size="10" font-weight="700" fill="#0D1117">C</text><text x="425.0" y="100.0" text-anchor="middle" font-size="21" fill="#39D353" filter="url(#glow)" class="pulse">✦</text><text x="425.0" y="128.0" text-anchor="middle" class="num2">2026</text><text x="425.0" y="142.0" text-anchor="middle" class="lbl">SINCE</text></svg>