<svg xmlns="http://www.w3.org/2000/svg" width="880" height="210" viewBox="0 0 880 210" role="img" aria-label="Contribution Timeline"><defs><linearGradient id="ng" x1="0" y1="0" x2="1" y2="1"><stop offset="0%" stop-color="#00F7FF"/><stop offset="50%" stop-color="#7B2FFF"/><stop offset="100%" stop-color="#FF00E5"/></linearGradient><linearGradient id="bar" x1="0" y1="0" x2="1" y2="0"><stop offset="0%" stop-color="#00F7FF"/><stop offset="100%" stop-color="#FF00E5"/></linearGradient><linearGradient id="area" x1="0" y1="0" x2="0" y2="1"><stop offset="0%" stop-color="#FF00E5" stop-opacity="0.55"/><stop offset="100%" stop-color="#00F7FF" stop-opacity="0"/></linearGradient><filter id="glow" x="-40%" y="-40%" width="180%" height="180%"><feGaussianBlur stdDeviation="3.2" result="b"/><feMerge><feMergeNode in="b"/><feMergeNode in="SourceGraphic"/></feMerge></filter></defs><style>text{font-family:ui-monospace,SFMono-Regular,Menlo,Consolas,monospace;}.title{fill:#00F7FF;font-size:13px;font-weight:700;letter-spacing:2.5px;}.sub{fill:#6E7681;font-size:10px;letter-spacing:1px;}.num{fill:#C9D1D9;font-size:29px;font-weight:700;}.num2{fill:#C9D1D9;font-size:20px;font-weight:700;}.lbl{fill:#6E7681;font-size:9px;letter-spacing:1.5px;}.sm{fill:#6E7681;font-size:9px;}@keyframes pulse{0%,100%{opacity:.2}50%{opacity:1}}@keyframes dash{to{stroke-dashoffset:-386;}}@keyframes flow{to{stroke-dashoffset:-1600;}}@keyframes breathe{0%,100%{opacity:.55}50%{opacity:1}}.pulse{animation:pulse 2.6s ease-in-out infinite;}.breathe{animation:breathe 4s ease-in-out infinite;}.border{fill:none;stroke:url(#ng);stroke-width:1.5;stroke-dasharray:48 338;animation:dash 7s linear infinite;}.frame{fill:none;stroke:#1F2937;stroke-width:1.2;}.grid{stroke:#1F2937;stroke-width:1;opacity:.55;}.axis{fill:#6E7681;font-size:9px;}</style><rect x="0.75" y="0.75" width="878.5" height="208.5" rx="13" fill="#0D1117"/><rect x="0.75" y="0.75" width="878.5" height="208.5" rx="13" class="border"/><circle cx="24" cy="30" r="3.6" fill="#00F7FF" class="pulse"/><text x="36" y="34" class="title">CONTRIBUTION TIMELINE</text><text x="856" y="33" class="sub" text-anchor="end">LAST 12 MONTHS</text><line x1="34.0" y1="166.0" x2="846.0" y2="166.0" class="grid"/><line x1="34.0" y1="132.0" x2="846.0" y2="132.0" class="grid"/><line x1="34.0" y1="98.0" x2="846.0" y2="98.0" class="grid"/><line x1="34.0" y1="64.0" x2="846.0" y2="64.0" class="grid"/><path d="M 34.0,166.0 L 49.9,166.0 L 65.8,166.0 L 81.8,166.0 L 97.7,166.0 L 113.6,166.0 L 129.5,166.0 L 145.5,166.0 L 161.4,166.0 L 177.3,166.0 L 193.2,166.0 L 209.1,166.0 L 225.1,166.0 L 241.0,166.0 L 256.9,166.0 L 272.8,166.0 L 288.7,166.0 L 304.7,166.0 L 320.6,166.0 L 336.5,166.0 L 352.4,166.0 L 368.4,166.0 L 384.3,166.0 L 400.2,166.0 L 416.1,166.0 L 432.0,166.0 L 448.0,166.0 L 463.9,166.0 L 479.8,166.0 L 495.7,166.0 L 511.6,166.0 L 527.6,166.0 L 543.5,166.0 L 559.4,121.8 L 575.3,111.6 L 591.3,115.0 L 607.2,125.2 L 623.1,118.4 L 639.0,111.6 L 654.9,108.2 L 670.9,111.6 L 686.8,115.0 L 702.7,125.2 L 718.6,125.2 L 734.5,121.8 L 750.5,118.4 L 766.4,115.0 L 782.3,104.8 L 798.2,128.6 L 814.2,121.8 L 830.1,64.0 L 846.0,159.2 L 846.0,166.0 L 34.0,166.0 Z" fill="url(#area)" class="breathe"/><path d="M 34.0,166.0 L 49.9,166.0 L 65.8,166.0 L 81.8,166.0 L 97.7,166.0 L 113.6,166.0 L 129.5,166.0 L 145.5,166.0 L 161.4,166.0 L 177.3,166.0 L 193.2,166.0 L 209.1,166.0 L 225.1,166.0 L 241.0,166.0 L 256.9,166.0 L 272.8,166.0 L 288.7,166.0 L 304.7,166.0 L 320.6,166.0 L 336.5,166.0 L 352.4,166.0 L 368.4,166.0 L 384.3,166.0 L 400.2,166.0 L 416.1,166.0 L 432.0,166.0 L 448.0,166.0 L 463.9,166.0 L 479.8,166.0 L 495.7,166.0 L 511.6,166.0 L 527.6,166.0 L 543.5,166.0 L 559.4,121.8 L 575.3,111.6 L 591.3,115.0 L 607.2,125.2 L 623.1,118.4 L 639.0,111.6 L 654.9,108.2 L 670.9,111.6 L 686.8,115.0 L 702.7,125.2 L 718.6,125.2 L 734.5,121.8 L 750.5,118.4 L 766.4,115.0 L 782.3,104.8 L 798.2,128.6 L 814.2,121.8 L 830.1,64.0 L 846.0,159.2" fill="none" stroke="#00F7FF" stroke-width="2.4" filter="url(#glow)" stroke-linejoin="round" stroke-linecap="round" stroke-dasharray="1600" stroke-dashoffset="1600"><animate attributeName="stroke-dashoffset" from="1600" to="0" dur="2.6s" fill="freeze"/></path><text x="34.0" y="186.0" class="axis" text-anchor="middle">SEP</text><text x="65.8" y="186.0" class="axis" text-anchor="middle">OCT</text><text x="129.5" y="186.0" class="axis" text-anchor="middle">NOV</text><text x="193.2" y="186.0" class="axis" text-anchor="middle">DEC</text><text x="272.8" y="186.0" class="axis" text-anchor="middle">JAN</text><text x="336.5" y="186.0" class="axis" text-anchor="middle">FEB</text><text x="400.2" y="186.0" class="axis" text-anchor="middle">MAR</text><text x="479.8" y="186.0" class="axis" text-anchor="middle">APR</text><text x="543.5" y="186.0" class="axis" text-anchor="middle">MAY</text><text x="607.2" y="186.0" class="axis" text-anchor="middle">JUN</text><text x="686.8" y="186.0" class="axis" text-anchor="middle">JUL</text><text x="750.5" y="186.0" class="axis" text-anchor="middle">AUG</text><text x="814.2" y="186.0" class="axis" text-anchor="middle">SEP</text><circle cx="559.4" cy="121.8" r="3.2" fill="#FF00E5" filter="url(#glow)"/><circle cx="575.3" cy="111.6" r="3.2" fill="#FF00E5" filter="url(#glow)"/><circle cx="591.3" cy="115.0" r="3.2" fill="#FF00E5" filter="url(#glow)"/><circle cx="607.2" cy="125.2" r="3.2" fill="#FF00E5" filter="url(#glow)"/><circle cx="623.1" cy="118.4" r="3.2" fill="#FF00E5" filter="url(#glow)"/><circle cx="639.0" cy="111.6" r="3.2" fill="#FF00E5" filter="url(#glow)"/><circle cx="654.9" cy="108.2" r="3.2" fill="#FF00E5" filter="url(#glow)"/><circle cx="670.9" cy="111.6" r="3.2" fill="#FF00E5" filter="url(#glow)"/><circle cx="686.8" cy="115.0" r="3.2" fill="#FF00E5" filter="url(#glow)"/><circle cx="702.7" cy="125.2" r="3.2" fill="#FF00E5" filter="url(#glow)"/><circle cx="718.6" cy="125.2" r="3.2" fill="#FF00E5" filter="url(#glow)"/><circle cx="734.5" cy="121.8" r="3.2" fill="#FF00E5" filter="url(#glow)"/><circle cx="750.5" cy="118.4" r="3.2" fill="#FF00E5" filter="url(#glow)"/><circle cx="766.4" cy="115.0" r="3.2" fill="#FF00E5" filter="url(#glow)"/><circle cx="782.3" cy="104.8" r="3.2" fill="#FF00E5" filter="url(#glow)"/><circle cx="798.2" cy="128.6" r="3.2" fill="#FF00E5" filter="url(#glow)"/><circle cx="814.2" cy="121.8" r="3.2" fill="#FF00E5" filter="url(#glow)"/><circle cx="830.1" cy="64.0" r="3.2" fill="#FF00E5" filter="url(#glow)"/><circle cx="846.0" cy="159.2" r="3.2" fill="#FF00E5" filter="url(#glow)"/><text x="34.0" y="190.0" class="lbl">274 COMMITS · PEAK 30 / WEEK</text><text x="846.0" y="190.0" class="lbl" text-anchor="end">@wind-04300</text></svg>